<!-- https://github.com/primer/octicons -->
<!-- MIT License -->
<svg
   viewBox="0 0 24 24"
   width="24"
   height="24"
   version="1.1"
   xmlns="http://www.w3.org/2000/svg"
   xmlns:svg="http://www.w3.org/2000/svg">
  <path
     fill-rule="evenodd"
     d="m 22.25,4 c 1,0 1,1.5 0,1.5 -3.829871,-0.01723 0.571664,0 -6,0 -1,0 -1,-1.5 0,-1.5 3.712329,4.776e-4 -0.745902,0 6,0 z M 9,6 c -4.6666646,0 -4.6666646,7 0,7 4.666665,0 4.666665,-7 0,-7 z M 4,9.5 C 4.000267,5.7603244 7.9555419,3.344606 11.282679,5.0518864 14.609816,6.7591667 14.953845,11.381021 11.916,13.562 c 2.950793,1.175822 4.922134,3.991013 5.018,7.166 0.05218,1.020644 -1.491226,1.065947 -1.499,0.044 -0.106459,-3.49441 -2.969971,-6.272008 -6.466,-6.272008 -3.4960292,0 -6.3595411,2.777598 -6.466,6.272008 -0.049962,0.977219 -1.50644332,0.934467 -1.499,-0.044 0.096826,-3.19055 2.0872357,-6.015839 5.059,-7.181 C 4.7659785,12.607017 3.9986894,11.101821 4,9.5 Z"
     id="path924" />
</svg>
