<?xml version="1.0" encoding="UTF-8"?>
<svg width="141.11mm" height="141.11mm" version="1.1" viewBox="0 0 500 500" xmlns="http://www.w3.org/2000/svg" xmlns:cc="http://creativecommons.org/ns#" xmlns:dc="http://purl.org/dc/elements/1.1/" xmlns:rdf="http://www.w3.org/1999/02/22-rdf-syntax-ns#">
<metadata>
<rdf:RDF>
<cc:Work rdf:about="">
<dc:format>image/svg+xml</dc:format>
<dc:type rdf:resource="http://purl.org/dc/dcmitype/StillImage"/>
<dc:title/>
</cc:Work>
</rdf:RDF>
</metadata>
<g transform="translate(-157.14 -79.505)">
<ellipse cx="406.78" cy="330.84" rx="246.12" ry="248.68" fill="#f6f6f6" opacity=".992" stroke-width=".91934"/>
<g transform="translate(3.1435 10.797)">
<path transform="translate(157.14 79.505)" d="m156.1 58.869c-2.6802 0.0382-5.4017 0.37342-8.1211 0.97656-4.2785 0.94895-8.6078 2.5883-12.598 4.8535-4.0189 2.2817-7.7352 5.2222-10.965 8.7246-3.2301 3.5029-5.9835 7.5395-8.0039 12.039-2.0186 4.4955-3.3834 9.4368-3.877 14.668-0.50485 5.6824-0.0729 12.792 2.707 20.16 1.3656 3.6195 3.2934 7.3439 5.9062 10.945 2.6115 3.5996 6.0385 7.0071 10.357 10.129 9.5388 6.8948 23.712 11.498 41.584 13.84-5.9174 3.3848-10.939 6.8874-14.686 10.248-5.021-4.706-14.551-11.823-27.82-22.859-23.772-19.773-82.71-23.06-82.734-14.141-0.0278 10.019 15.256 50.605 63.74 43.146 20.313-3.1248 31.724-0.31868 39.215 1.2949-19.373 20.972-43.386 52.454-31.125 87.51 32.595 93.196 56.112 146.97 125.33 146.97 69.214 0 94.532-53.339 125.32-146.97 11.601-35.28-11.75-66.538-31.123-87.51 7.4912-1.6136 18.902-4.4198 39.215-1.2949 48.484 7.4585 63.766-33.128 63.738-43.146-0.0248-8.9189-58.96-5.6325-82.732 14.141-13.269 11.037-22.801 18.153-27.822 22.859-2.5885-3.4216-7.1092-7.0072-12.953-10.471 17.064-2.408 30.622-6.9443 39.854-13.617 4.3189-3.1218 7.744-6.5293 10.355-10.129 2.6128-3.6014 4.5426-7.3258 5.9082-10.945 2.7799-7.3681 3.2099-14.478 2.7051-20.16-0.49357-5.2311-1.8564-10.172-3.875-14.668-2.0204-4.4996-4.7738-8.5362-8.0039-12.039-3.2297-3.5024-6.9479-6.4429-10.967-8.7246-3.9899-2.2652-8.3172-3.9046-12.596-4.8535-17.404-3.8601-34.926 3.3135-40.787 28.381 1.6307-4.2823 8.339-17.124 24.525-17.879 9.9786-0.46537 17.737 4.1634 22.686 10.416 4.8953 6.1857 6.4798 14.3 5.6328 20.17-0.97936 6.7878-5.9983 25.425-34.455 24.588-18.696-0.5498-35.363-18.646-58.924-18.646-7.4249 0-12.386 2.2913-15.703 5.4277-3.3168-3.1365-8.2782-5.4277-15.703-5.4277-23.561 0-40.228 18.097-58.924 18.646-28.457 0.83684-33.476-17.8-34.455-24.588-0.84696-5.8702 0.73754-13.984 5.6328-20.17 4.9483-6.2527 12.707-10.881 22.686-10.416 16.186 0.75488 22.895 13.597 24.525 17.879-4.9451-21.151-18.193-29.564-32.666-29.357z" fill="#a22430" fill-opacity=".85098"/>
<path d="m313.24 138.37c-2.6802 0.0382-5.4017 0.37342-8.1211 0.97656-4.2785 0.94895-8.6078 2.5883-12.598 4.8535-4.0189 2.2817-7.7352 5.2222-10.965 8.7246-3.2301 3.5029-5.9835 7.5395-8.0039 12.039-2.0186 4.4955-3.3834 9.4368-3.877 14.668-0.50485 5.6824-0.0729 12.792 2.707 20.16 1.3656 3.6195 3.2934 7.3439 5.9062 10.945 2.6115 3.5996 6.0385 7.0071 10.357 10.129 14.838 10.725 40.837 15.935 74.641 15.65 21.512-0.1811 32.867-6.8175 38.857-13.475 5.9905 6.6571 17.345 13.294 38.857 13.475 33.803 0.28458 59.803-4.9252 74.641-15.65 4.3189-3.1218 7.744-6.5293 10.355-10.129 2.6128-3.6014 4.5426-7.3258 5.9082-10.945 2.7799-7.3681 3.2099-14.478 2.7051-20.16-0.49357-5.2311-1.8564-10.172-3.875-14.668-2.0204-4.4996-4.7738-8.5362-8.0039-12.039-3.2297-3.5024-6.9479-6.4429-10.967-8.7246-3.9899-2.2652-8.3172-3.9046-12.596-4.8535-17.404-3.8601-34.926 3.3135-40.787 28.381 1.6307-4.2823 8.339-17.124 24.525-17.879 9.9786-0.46537 17.737 4.1634 22.686 10.416 4.8953 6.1857 6.4798 14.3 5.6328 20.17-0.97936 6.7878-5.9983 25.425-34.455 24.588-18.696-0.5498-35.363-18.646-58.924-18.646-7.4249 0-12.386 2.2913-15.703 5.4277-3.3168-3.1365-8.2782-5.4277-15.703-5.4277-23.561 0-40.228 18.097-58.924 18.646-28.457 0.83684-33.476-17.8-34.455-24.588-0.84696-5.8702 0.73754-13.984 5.6328-20.17 4.9483-6.2527 12.707-10.881 22.686-10.416 16.186 0.75488 22.895 13.597 24.525 17.879-4.9451-21.151-18.193-29.564-32.666-29.357z" fill="#a22430" fill-opacity=".85098"/>
<path d="m316.4 339.91c32.595 93.196 16.537 145.08 85.751 145.08 69.214 0 54.938-51.451 85.726-145.08 3.0462-57.949-4.4374-62.725-85.737-62.358-76.967-0.36652-88.477 3.8032-85.74 62.358z" fill="#a22430" fill-opacity=".85098"/>
<ellipse cx="451.22" cy="318.72" rx="40.001" ry="41.799" fill="#fff" stroke-width="0"/>
<ellipse cx="353.06" cy="318.72" rx="40.001" ry="41.799" fill="#fff" stroke-width="0"/>
<circle cx="355.13" cy="318.72" r="13.984" fill="#a22430" fill-opacity=".85022" stroke-width="0"/>
<circle cx="449.15" cy="318.72" r="13.984" fill="#a22430" fill-opacity=".85022" stroke-width="0"/>
</g>
</g>
</svg>
