<?xml version="1.0" encoding="UTF-8" standalone="no"?>
<!-- Created with Inkscape (http://www.inkscape.org/) -->
<svg xmlns:dc="http://purl.org/dc/elements/1.1/" xmlns:cc="http://creativecommons.org/ns#"
     xmlns:rdf="http://www.w3.org/1999/02/22-rdf-syntax-ns#" xmlns="http://www.w3.org/2000/svg"
     xmlns:sodipodi="http://sodipodi.sourceforge.net/DTD/sodipodi-0.dtd"
     xmlns:inkscape="http://www.inkscape.org/namespaces/inkscape" width="141.11111mm" height="141.11111mm"
     viewBox="0 0 499.99998 500.00005" id="svg2" version="1.1" inkscape:version="0.91 r13725"
     inkscape:export-filename="/home/alberto/NewGS edited.png" inkscape:export-xdpi="90" inkscape:export-ydpi="90"
     sodipodi:docname="GS avatar Final.svg">
  <defs id="defs4"/>
  <sodipodi:namedview id="base" pagecolor="#ffffff" bordercolor="#666666" borderopacity="1.0" inkscape:pageopacity="0.0" inkscape:pageshadow="2" inkscape:zoom="0.35355339" inkscape:cx="-611.42805" inkscape:cy="426.03658" inkscape:document-units="px" inkscape:current-layer="layer1" showgrid="false" fit-margin-top="0" fit-margin-left="0" fit-margin-right="0" fit-margin-bottom="0" inkscape:window-width="1366" inkscape:window-height="716" inkscape:window-x="0" inkscape:window-y="29" inkscape:window-maximized="1" showguides="false">
    <inkscape:grid type="xygrid" id="grid4146"/>
  </sodipodi:namedview>
  <metadata id="metadata7">
    <rdf:RDF>
      <cc:Work rdf:about="">
        <dc:format>image/svg+xml</dc:format>
        <dc:type rdf:resource="http://purl.org/dc/dcmitype/StillImage"/>
        <dc:title/>
      </cc:Work>
    </rdf:RDF>
  </metadata>
  <g inkscape:label="Capa 1" inkscape:groupmode="layer" id="layer1" transform="translate(-157.14286,-79.50503)">
    <rect style="opacity:1;fill:#ffffff;fill-opacity:1;fill-rule:nonzero;stroke:none;stroke-width:0;stroke-linecap:butt;stroke-linejoin:round;stroke-miterlimit:4;stroke-dasharray:none;stroke-opacity:1" id="rect4685" width="500.00009" height="500.00009" x="157.14281" y="79.50502"/>
    <g id="g5206" transform="translate(5.0010184,16.878838)">
      <path id="path5202" transform="translate(157.14281,79.50503)" d="m 156.0957,58.869141 c -2.68025,0.0382 -5.40172,0.373422 -8.12109,0.976562 -4.27851,0.94895 -8.60777,2.588306 -12.59766,4.853516 -4.01887,2.281669 -7.73517,5.2222 -10.96484,8.724609 -3.23012,3.50289 -5.98354,7.539503 -8.00391,12.039063 -2.01857,4.495529 -3.38338,9.436829 -3.87695,14.667969 -0.50485,5.68236 -0.0729,12.79202 2.70703,20.16016 1.36562,3.61951 3.29345,7.34391 5.90625,10.94531 2.61146,3.59956 6.03849,7.0071 10.35742,10.1289 9.53878,6.89481 23.71189,11.49816 41.58399,13.83985 -5.91744,3.3848 -10.93941,6.88738 -14.68555,10.24804 -5.021,-4.706 -14.55133,-11.82251 -27.82031,-22.85937 -23.77204,-19.77309 -82.709577,-23.05953 -82.734377,-14.14063 -0.0278,10.01879 15.25625,50.60502 63.740237,43.14649 20.31295,-3.12485 31.72368,-0.31868 39.21484,1.29492 -19.37347,20.97225 -43.38563,52.45365 -31.125,87.50977 32.5947,93.19612 56.11218,146.97265 125.32617,146.97265 69.214,0 94.53219,-53.33948 125.32032,-146.97265 11.60063,-35.28002 -11.74959,-66.53752 -31.12305,-87.50977 7.49115,-1.6136 18.90189,-4.41977 39.21484,-1.29492 48.48399,7.45853 63.76615,-33.1277 63.73828,-43.14649 -0.0248,-8.9189 -58.96038,-5.63246 -82.73242,14.14063 -13.26898,11.03686 -22.80127,18.15337 -27.82226,22.85937 -2.58848,-3.42164 -7.1092,-7.00722 -12.95313,-10.4707 17.06416,-2.40798 30.62176,-6.9443 39.85352,-13.61719 4.31893,-3.1218 7.74401,-6.52934 10.35547,-10.1289 2.6128,-3.6014 4.54258,-7.3258 5.9082,-10.94531 2.77992,-7.36814 3.20993,-14.4778 2.70508,-20.16016 -0.49357,-5.23114 -1.85643,-10.17244 -3.875,-14.667969 -2.02037,-4.49956 -4.77379,-8.536173 -8.00391,-12.039063 -3.22967,-3.502409 -6.94793,-6.44294 -10.9668,-8.724609 -3.98989,-2.26521 -8.31719,-3.904566 -12.5957,-4.853516 -17.40396,-3.860099 -34.92622,3.313482 -40.78711,28.380859 1.6307,-4.282299 8.33903,-17.124026 24.52539,-17.878906 9.97855,-0.46537 17.73729,4.163357 22.68555,10.416016 4.89527,6.185699 6.47977,14.299742 5.63281,20.169918 -0.97936,6.7878 -5.99826,25.42473 -34.45508,24.58789 -18.69599,-0.5498 -35.3627,-18.64648 -58.92383,-18.64648 -7.42488,0 -12.3863,2.29126 -15.70312,5.42773 -3.31682,-3.13647 -8.27824,-5.42773 -15.70312,-5.42773 -23.56113,0 -40.22784,18.09668 -58.92383,18.64648 -28.45682,0.83684 -33.47572,-17.80009 -34.45508,-24.58789 -0.84696,-5.870176 0.73754,-13.984219 5.63281,-20.169918 4.94826,-6.252659 12.707,-10.881386 22.68555,-10.416016 16.18636,0.75488 22.89469,13.596607 24.52539,17.878906 C 183.81659,67.075965 170.56906,58.662871 156.0957,58.869141 Z" style="display:inline;fill:#a22430;fill-opacity:0.85098039;stroke:none" inkscape:connector-curvature="0"/>
      <path inkscape:connector-curvature="0" id="path5157" d="m 313.23851,138.37417 c -2.68025,0.0382 -5.40172,0.37342 -8.12109,0.97656 -4.27851,0.94895 -8.60777,2.58831 -12.59766,4.85352 -4.01887,2.28167 -7.73517,5.2222 -10.96484,8.72461 -3.23012,3.50289 -5.98354,7.5395 -8.00391,12.03906 -2.01857,4.49553 -3.38338,9.43683 -3.87695,14.66797 -0.50485,5.68236 -0.0729,12.79202 2.70703,20.16016 1.36562,3.61951 3.29345,7.34391 5.90625,10.94531 2.61146,3.59956 6.03849,7.0071 10.35742,10.1289 14.838,10.72518 40.83724,15.93497 74.64063,15.65039 21.51239,-0.1811 32.86693,-6.81751 38.85742,-13.4746 5.99049,6.65709 17.34503,13.2935 38.85742,13.4746 33.80339,0.28458 59.80263,-4.92521 74.64063,-15.65039 4.31893,-3.1218 7.74401,-6.52934 10.35547,-10.1289 2.6128,-3.6014 4.54258,-7.3258 5.9082,-10.94531 2.77992,-7.36814 3.20993,-14.4778 2.70508,-20.16016 -0.49357,-5.23114 -1.85643,-10.17244 -3.875,-14.66797 -2.02037,-4.49956 -4.77379,-8.53617 -8.00391,-12.03906 -3.22967,-3.50241 -6.94793,-6.44294 -10.9668,-8.72461 -3.98989,-2.26521 -8.31719,-3.90457 -12.5957,-4.85352 -17.40396,-3.8601 -34.92622,3.31348 -40.78711,28.38086 1.6307,-4.2823 8.33903,-17.12402 24.52539,-17.8789 9.97855,-0.46537 17.73729,4.16335 22.68555,10.41601 4.89527,6.1857 6.47977,14.29974 5.63281,20.16992 -0.97936,6.7878 -5.99826,25.42473 -34.45508,24.58789 -18.696,-0.5498 -35.3627,-18.64648 -58.92383,-18.64648 -7.42489,0 -12.3863,2.29126 -15.70312,5.42773 -3.31682,-3.13647 -8.27823,-5.42773 -15.70312,-5.42773 -23.56113,0 -40.22783,18.09668 -58.92383,18.64648 -28.45682,0.83684 -33.47572,-17.80009 -34.45508,-24.58789 -0.84696,-5.87018 0.73754,-13.98422 5.63281,-20.16992 4.94826,-6.25266 12.707,-10.88138 22.68555,-10.41601 16.18636,0.75488 22.89469,13.5966 24.52539,17.8789 -4.94513,-21.1506 -18.19266,-29.56369 -32.66602,-29.35742 z" style="display:inline;fill:#a22430;fill-opacity:0.85098039;stroke:none"/>
      <path sodipodi:nodetypes="csccc" style="opacity:1;fill:#a22430;fill-opacity:0.85098039;fill-rule:nonzero;stroke:none;stroke-width:3.67872214;stroke-linecap:butt;stroke-linejoin:round;stroke-miterlimit:4;stroke-dasharray:none;stroke-opacity:1" d="m 316.40417,339.90855 c 32.59469,93.19613 16.53711,145.08383 85.75112,145.08383 69.214,0 54.93762,-51.45065 85.72574,-145.08383 3.04616,-57.94864 -4.43738,-62.72475 -85.73722,-62.35823 -76.96659,-0.36652 -88.47651,3.8032 -85.73964,62.35823 z" id="path4152" inkscape:connector-curvature="0"/>
      <ellipse ry="41.798668" rx="40.000877" cy="318.71783" cx="451.22238" id="path4139" style="opacity:1;fill:#ffffff;fill-opacity:1;fill-rule:nonzero;stroke:#000000;stroke-width:0;stroke-linecap:butt;stroke-linejoin:round;stroke-miterlimit:4;stroke-dasharray:none;stroke-opacity:1"/>
      <ellipse ry="41.798668" rx="40.000877" cy="318.71783" cx="353.06296" id="ellipse4143" style="opacity:1;fill:#ffffff;fill-opacity:1;fill-rule:nonzero;stroke:#000000;stroke-width:0;stroke-linecap:butt;stroke-linejoin:round;stroke-miterlimit:4;stroke-dasharray:none;stroke-opacity:1"/>
      <circle r="13.983542" cy="318.71783" cx="355.13037" id="path4671" style="opacity:1;fill:#a22430;fill-opacity:0.85022027;fill-rule:nonzero;stroke:#000000;stroke-width:0;stroke-linecap:butt;stroke-linejoin:round;stroke-miterlimit:4;stroke-dasharray:none;stroke-opacity:1"/>
      <circle style="opacity:1;fill:#a22430;fill-opacity:0.85022027;fill-rule:nonzero;stroke:#000000;stroke-width:0;stroke-linecap:butt;stroke-linejoin:round;stroke-miterlimit:4;stroke-dasharray:none;stroke-opacity:1" id="circle4673" cx="449.15485" cy="318.71783" r="13.983542"/>
    </g>
  </g>
</svg>