<!-- Generated by IcoMoon.io -->
<svg version="1.1" xmlns="http://www.w3.org/2000/svg" width="32" height="32" viewBox="0 0 32 32">
<title>attach</title>
<path d="M4.703 29.192c-3.652-3.768-3.584-9.844 0.087-13.599l13.11-13.41c2.77-2.833 7.272-2.833 10.042 0 2.743 2.806 2.746 7.333 0 10.142l-13.051 11.381c-2.048 1.659-4.032 1.617-5.243 0.067-1.048-1.407-1.181-3.381 0.454-5.377l8.775-9.424c1.421-1.318 3.019 0.439 1.965 1.644l-8.723 9.548c-0.833 0.91 0.286 2.144 1.163 1.34l11.8-11.976c1.226-1.254 1.226-3.295-0.001-4.55-1.199-1.227-3.122-1.227-4.322 0l-13.11 13.41c-2.303 2.326-1.592 5.802 0.391 7.61 3.605 3.643 7.555 0.332 12.211-3.69 0.386-0.395 5.076-4.978 7.183-6.899 0.901-0.618 1.824 0.244 1.201 1.554l-9.69 11.7c-3.892 4.233-10.565 4.322-14.242 0.528z"></path>
</svg>
