<!-- Generated by IcoMoon.io -->
<svg version="1.1" xmlns="http://www.w3.org/2000/svg" width="32" height="32" viewBox="0 0 32 32">
<title>recycle</title>
<path d="M16.93 22.627c0.914-0.547 1.931-0.247 2.325 0.762l0.544 1.697 6.041 0.087c1.566 0.034 2.565-1.676 1.765-3.022l-1.661-2.793c-0.212-0.356-0.868-1.092-0.094-1.553l2.149-1.278c0.74-0.44 1.172 0.43 1.383 0.786l1.658 2.787c2.407 4.047-0.585 9.169-5.289 9.066l-6.075 0.337-0.691 1.568c-0.455 0.764-1.106 1.047-2.245 0.51l-4.627-3.773c-0.382-0.399-0.382-1.349 0.017-1.73z"></path>
<path d="M19.998 14.054c-0.935-0.511-1.191-1.54-0.52-2.391l1.187-1.328-2.984-5.253c-0.763-1.368-2.744-1.363-3.499 0.009l-1.567 2.846c-0.2 0.363-0.502 1.302-1.291 0.867l-2.19-1.206c-0.755-0.415-0.223-1.228-0.023-1.591l1.564-2.841c2.271-4.125 8.203-4.139 10.496-0.030l3.367 5.068 1.702-0.198c0.889 0.005 1.463 0.423 1.577 1.678l-0.91 5.9c-0.151 0.531-0.969 1.012-1.501 0.862z"></path>
<path d="M10.97 15.602c0.005 1.065-0.771 1.787-1.84 1.612l-1.737-0.396-3.153 5.154c-0.828 1.33 0.135 3.061 1.701 3.058l3.249-0.006c0.414-0.001 1.382-0.191 1.384 0.71l0.005 2.5c0.002 0.861-0.967 0.789-1.381 0.79l-3.243 0.006c-4.708 0.009-7.591-5.176-5.106-9.17l2.805-5.399-0.997-1.393c-0.426-0.78-0.337-1.485 0.705-2.192l5.604-2.059c0.538-0.125 1.355 0.358 1.48 0.896z"></path>
</svg>
