<!-- Generated by IcoMoon.io -->
<svg version="1.1" xmlns="http://www.w3.org/2000/svg" width="32" height="32" viewBox="0 0 32 32">
<title>heart</title>
<path opacity="0.995434" fill="#000" d="M16.020 7.719c0 0 0-0.003 0-0.010s0-0.017 0.001-0.030c0.001-0.013 0.001-0.030 0.003-0.050s0.003-0.043 0.005-0.069c0.002-0.026 0.005-0.056 0.009-0.088s0.008-0.068 0.013-0.107c0.005-0.039 0.011-0.080 0.018-0.125s0.015-0.092 0.024-0.143c0.009-0.050 0.020-0.104 0.031-0.159s0.024-0.114 0.039-0.175c0.014-0.061 0.030-0.124 0.047-0.19s0.036-0.134 0.056-0.204c0.020-0.070 0.042-0.143 0.065-0.217s0.049-0.151 0.076-0.229c0.027-0.078 0.056-0.158 0.086-0.24s0.063-0.165 0.097-0.249c0.034-0.084 0.071-0.17 0.109-0.257s0.079-0.175 0.121-0.264c0.042-0.089 0.087-0.179 0.134-0.269s0.095-0.181 0.146-0.273c0.051-0.091 0.104-0.183 0.159-0.276s0.113-0.184 0.172-0.277c0.060-0.092 0.121-0.184 0.185-0.276s0.13-0.183 0.199-0.275c0.068-0.091 0.139-0.182 0.212-0.271s0.148-0.179 0.225-0.267c0.077-0.088 0.157-0.175 0.238-0.261s0.165-0.17 0.251-0.253c0.086-0.083 0.174-0.165 0.264-0.245s0.182-0.158 0.276-0.234c0.094-0.076 0.19-0.151 0.288-0.223s0.198-0.143 0.299-0.211c0.102-0.068 0.205-0.134 0.31-0.197s0.212-0.124 0.321-0.183c0.109-0.058 0.219-0.114 0.331-0.167s0.225-0.103 0.34-0.15c0.115-0.047 0.231-0.092 0.348-0.133s0.236-0.080 0.356-0.115 0.241-0.067 0.363-0.096c0.122-0.029 0.245-0.054 0.369-0.076s0.249-0.041 0.374-0.056c0.126-0.015 0.252-0.027 0.379-0.036s0.254-0.013 0.382-0.015c0.128-0.001 0.256 0.001 0.385 0.006s0.257 0.015 0.386 0.027c0.129 0.013 0.258 0.029 0.387 0.049s0.258 0.043 0.386 0.070c0.128 0.027 0.257 0.058 0.384 0.091s0.255 0.072 0.382 0.113c0.127 0.041 0.253 0.086 0.378 0.134s0.25 0.099 0.373 0.154c0.124 0.055 0.246 0.113 0.368 0.175s0.242 0.126 0.361 0.194 0.237 0.139 0.353 0.214c0.116 0.074 0.231 0.152 0.344 0.232s0.224 0.164 0.334 0.251 0.217 0.176 0.323 0.268c0.106 0.092 0.21 0.187 0.311 0.285s0.201 0.198 0.299 0.301c0.097 0.103 0.192 0.208 0.285 0.316s0.183 0.218 0.27 0.33c0.088 0.112 0.173 0.227 0.255 0.344s0.162 0.236 0.239 0.357c0.077 0.121 0.151 0.244 0.222 0.368s0.14 0.251 0.205 0.379c0.065 0.128 0.128 0.258 0.187 0.389s0.115 0.264 0.168 0.398c0.053 0.134 0.102 0.27 0.149 0.406s0.090 0.275 0.129 0.414c0.040 0.139 0.076 0.279 0.109 0.42s0.063 0.283 0.089 0.426c0.026 0.143 0.049 0.286 0.068 0.43s0.035 0.289 0.047 0.434c0.012 0.145 0.021 0.291 0.026 0.438s0.007 0.293 0.005 0.44c-0.002 0.147-0.007 0.294-0.016 0.442s-0.021 0.295-0.037 0.443c-0.016 0.148-0.035 0.296-0.058 0.444s-0.049 0.296-0.079 0.443c-0.030 0.148-0.063 0.295-0.099 0.443s-0.076 0.295-0.119 0.442c-0.043 0.147-0.090 0.294-0.139 0.44s-0.102 0.293-0.159 0.438c-0.056 0.146-0.115 0.291-0.177 0.436s-0.128 0.289-0.196 0.434-0.14 0.288-0.214 0.431c-0.074 0.143-0.151 0.286-0.231 0.428s-0.162 0.283-0.247 0.424c-0.085 0.141-0.173 0.281-0.263 0.421s-0.183 0.279-0.278 0.417c-0.095 0.139-0.192 0.276-0.292 0.414s-0.201 0.274-0.305 0.41-0.21 0.272-0.317 0.406c-0.108 0.135-0.217 0.269-0.329 0.403s-0.224 0.267-0.339 0.399c-0.115 0.132-0.231 0.264-0.349 0.396s-0.237 0.262-0.357 0.392c-0.12 0.13-0.242 0.26-0.364 0.389s-0.246 0.257-0.371 0.385-0.25 0.255-0.376 0.382c-0.126 0.127-0.253 0.253-0.38 0.379s-0.255 0.251-0.383 0.376-0.257 0.249-0.385 0.373-0.258 0.247-0.386 0.37c-0.129 0.123-0.258 0.245-0.386 0.367s-0.257 0.244-0.386 0.365c-0.128 0.121-0.256 0.242-0.384 0.362s-0.254 0.24-0.381 0.359c-0.126 0.119-0.252 0.238-0.377 0.357s-0.249 0.236-0.372 0.354c-0.123 0.118-0.245 0.235-0.366 0.351s-0.241 0.233-0.36 0.349c-0.119 0.116-0.236 0.231-0.352 0.346s-0.231 0.229-0.344 0.343c-0.113 0.114-0.225 0.227-0.335 0.34s-0.219 0.225-0.326 0.336-0.212 0.222-0.316 0.333c-0.103 0.11-0.205 0.22-0.305 0.329s-0.198 0.217-0.294 0.325c-0.096 0.108-0.19 0.214-0.282 0.32s-0.182 0.211-0.27 0.316-0.174 0.208-0.257 0.311c-0.084 0.103-0.165 0.204-0.245 0.305s-0.157 0.201-0.232 0.3c-0.075 0.099-0.148 0.197-0.219 0.293s-0.139 0.192-0.205 0.287-0.13 0.188-0.192 0.28c-0.062 0.092-0.121 0.183-0.179 0.272s-0.113 0.177-0.166 0.264c-0.053 0.087-0.104 0.172-0.153 0.255s-0.095 0.166-0.14 0.246-0.087 0.16-0.127 0.237c-0.040 0.077-0.079 0.153-0.115 0.227s-0.071 0.146-0.103 0.217c-0.032 0.070-0.063 0.139-0.092 0.206s-0.056 0.131-0.081 0.194c-0.025 0.063-0.049 0.124-0.070 0.183s-0.042 0.116-0.061 0.17c-0.019 0.055-0.036 0.107-0.051 0.158s-0.030 0.099-0.043 0.145-0.024 0.090-0.035 0.131c-0.010 0.041-0.020 0.081-0.028 0.117s-0.015 0.071-0.021 0.104c-0.006 0.032-0.011 0.062-0.016 0.089s-0.008 0.052-0.011 0.075c-0.003 0.023-0.005 0.043-0.007 0.060s-0.003 0.033-0.004 0.045c-0.001 0.013-0.001 0.023-0.002 0.030s-0 0.013-0 0.015 0 0.003 0 0-0-0.008-0-0.015-0.001-0.018-0.002-0.030c-0.001-0.013-0.002-0.028-0.004-0.045s-0.004-0.037-0.007-0.060c-0.003-0.022-0.007-0.047-0.011-0.075s-0.010-0.057-0.016-0.089c-0.006-0.032-0.013-0.067-0.021-0.104s-0.017-0.076-0.028-0.117c-0.010-0.041-0.022-0.085-0.035-0.131s-0.027-0.094-0.043-0.145c-0.016-0.050-0.033-0.103-0.051-0.158s-0.039-0.111-0.061-0.17c-0.022-0.059-0.045-0.12-0.070-0.183s-0.052-0.128-0.081-0.194c-0.029-0.067-0.059-0.135-0.092-0.206s-0.067-0.143-0.103-0.217c-0.036-0.074-0.075-0.15-0.115-0.227s-0.083-0.156-0.127-0.237-0.091-0.163-0.14-0.246c-0.049-0.084-0.1-0.169-0.153-0.255s-0.108-0.175-0.166-0.264c-0.057-0.089-0.117-0.18-0.179-0.272s-0.126-0.185-0.192-0.28c-0.066-0.094-0.135-0.19-0.205-0.287s-0.144-0.195-0.219-0.293c-0.075-0.099-0.152-0.199-0.232-0.3s-0.161-0.203-0.245-0.305-0.169-0.206-0.257-0.311c-0.088-0.104-0.178-0.21-0.27-0.316s-0.186-0.213-0.282-0.32-0.194-0.216-0.294-0.325c-0.1-0.109-0.201-0.219-0.305-0.329s-0.209-0.221-0.316-0.333c-0.107-0.111-0.216-0.224-0.326-0.336s-0.222-0.226-0.335-0.34c-0.113-0.114-0.228-0.228-0.344-0.343s-0.234-0.23-0.352-0.346c-0.119-0.116-0.239-0.232-0.36-0.349s-0.243-0.234-0.366-0.351-0.247-0.236-0.372-0.354c-0.125-0.118-0.25-0.237-0.377-0.357s-0.253-0.239-0.381-0.359c-0.127-0.12-0.255-0.241-0.383-0.362s-0.257-0.243-0.386-0.365c-0.129-0.122-0.258-0.244-0.386-0.367s-0.258-0.246-0.386-0.37c-0.129-0.124-0.257-0.248-0.385-0.373s-0.256-0.25-0.383-0.376c-0.127-0.126-0.254-0.252-0.38-0.379s-0.251-0.254-0.376-0.382c-0.124-0.128-0.248-0.256-0.371-0.385s-0.244-0.259-0.364-0.389c-0.12-0.13-0.239-0.261-0.357-0.392s-0.234-0.263-0.349-0.396c-0.115-0.132-0.228-0.266-0.339-0.399s-0.221-0.268-0.329-0.403c-0.108-0.135-0.214-0.27-0.317-0.406s-0.206-0.273-0.305-0.41c-0.1-0.137-0.197-0.275-0.292-0.414s-0.188-0.278-0.278-0.417c-0.090-0.14-0.178-0.28-0.263-0.421s-0.167-0.282-0.247-0.424c-0.080-0.142-0.157-0.284-0.231-0.428s-0.145-0.287-0.214-0.431c-0.068-0.144-0.134-0.289-0.196-0.434s-0.122-0.29-0.177-0.436c-0.056-0.146-0.109-0.292-0.159-0.438s-0.096-0.293-0.139-0.44c-0.043-0.147-0.083-0.294-0.119-0.442s-0.069-0.295-0.099-0.443-0.056-0.296-0.079-0.443c-0.023-0.148-0.042-0.296-0.058-0.444s-0.028-0.296-0.037-0.443c-0.009-0.148-0.014-0.295-0.016-0.442s0-0.294 0.005-0.44 0.014-0.292 0.026-0.438c0.012-0.145 0.028-0.29 0.047-0.434s0.042-0.288 0.068-0.43 0.056-0.285 0.089-0.426c0.033-0.141 0.069-0.281 0.109-0.42s0.083-0.277 0.129-0.414 0.096-0.272 0.149-0.406c0.053-0.134 0.109-0.267 0.168-0.398s0.121-0.261 0.187-0.389c0.065-0.128 0.134-0.255 0.205-0.379s0.145-0.247 0.222-0.368c0.077-0.121 0.157-0.24 0.239-0.357s0.168-0.231 0.255-0.344c0.088-0.112 0.178-0.223 0.27-0.33s0.188-0.213 0.285-0.316 0.197-0.203 0.299-0.301c0.102-0.098 0.206-0.193 0.311-0.285s0.214-0.182 0.323-0.268 0.221-0.17 0.334-0.251c0.113-0.081 0.228-0.158 0.344-0.232s0.234-0.146 0.353-0.214 0.239-0.133 0.361-0.194c0.121-0.062 0.244-0.12 0.368-0.175s0.248-0.106 0.373-0.154c0.125-0.048 0.251-0.093 0.378-0.134s0.254-0.079 0.382-0.113c0.128-0.034 0.256-0.065 0.384-0.091s0.257-0.050 0.386-0.070c0.129-0.020 0.258-0.036 0.387-0.049s0.258-0.022 0.386-0.027c0.129-0.006 0.257-0.008 0.385-0.006s0.255 0.007 0.382 0.015 0.253 0.021 0.379 0.036c0.126 0.015 0.25 0.034 0.374 0.056s0.247 0.048 0.369 0.076c0.122 0.029 0.243 0.061 0.363 0.096s0.239 0.074 0.356 0.115c0.117 0.041 0.234 0.086 0.348 0.133s0.228 0.098 0.34 0.15c0.112 0.053 0.222 0.109 0.331 0.167s0.216 0.119 0.321 0.183c0.105 0.063 0.209 0.129 0.31 0.197s0.201 0.138 0.299 0.211c0.098 0.072 0.194 0.147 0.288 0.223s0.186 0.155 0.276 0.234 0.178 0.161 0.264 0.245c0.086 0.083 0.169 0.167 0.251 0.253s0.161 0.173 0.238 0.261 0.152 0.177 0.225 0.267c0.073 0.090 0.144 0.18 0.212 0.271s0.135 0.183 0.199 0.275c0.064 0.092 0.126 0.184 0.185 0.276s0.117 0.185 0.172 0.277c0.055 0.092 0.108 0.184 0.159 0.276s0.1 0.183 0.146 0.273c0.047 0.090 0.091 0.18 0.134 0.269s0.083 0.177 0.121 0.264c0.038 0.087 0.075 0.173 0.109 0.257s0.067 0.167 0.097 0.249c0.031 0.081 0.059 0.161 0.086 0.24s0.052 0.155 0.076 0.229c0.023 0.074 0.045 0.147 0.065 0.217s0.039 0.138 0.056 0.204c0.017 0.066 0.033 0.129 0.047 0.19s0.027 0.119 0.039 0.175c0.012 0.056 0.022 0.109 0.031 0.159s0.017 0.098 0.024 0.143c0.007 0.045 0.013 0.086 0.018 0.125s0.010 0.074 0.013 0.107c0.004 0.033 0.007 0.062 0.009 0.088s0.004 0.049 0.005 0.069c0.001 0.020 0.002 0.036 0.003 0.050s0.001 0.023 0.001 0.030c0 0.007 0 0.010 0 0.010z"></path>
</svg>
