<!-- Generated by IcoMoon.io -->
<svg version="1.1" xmlns="http://www.w3.org/2000/svg" width="32" height="32" viewBox="0 0 32 32">
<title>logo</title>
<path d="M14.225 29.263c1.48-0.748 2.909-2.155 3.451-3.398 0.827-1.893 1.068-1.818-5.781-1.818-6.744 0-7.349-0.115-8.593-1.628-0.61-0.742-0.633-1.086-0.633-9.456 0-8.422 0.020-8.713 0.651-9.562 1.2-1.613 1.699-1.679 12.7-1.679 11.005 0 11.456 0.062 12.71 1.748 0.566 0.761 0.6 1.3 0.6 9.493 0 8.37-0.023 8.715-0.633 9.456-0.909 1.105-2.149 1.628-3.864 1.628-1.331 0-1.517 0.078-1.681 0.703-0.249 0.95-1.56 2.395-2.912 3.212-1.363 0.823-4.873 1.889-6.166 1.871l-0.953-0.013zM19.7 20.572c1.193-0.547 2.345-2.309 2.627-4.017 0.135-0.818 0.175-1.554 0.090-1.636-0.308-0.294-5.508-0.153-5.508 0.15 0 0.165-0.186 1.211 0.050 1.752 0.31 0.711 1.031 0.333 1.608 0.408 0.496 0.065 0.767 0.336 0.352 0.875-0.364 0.472-0.79 0.578-2.292 0.57-1.599-0.009-2.145-0.173-2.784-0.735-0.708-0.623-0.728-1.11-0.826-3.188-0.133-2.808 0.201-3.318 2.359-3.602 1.79-0.236 3.638 0.109 4.14 1.164 0.299 0.628 0.194 0.74 1.31 0.74 1.54 0 1.643-0.426 1.047-1.992-0.385-1.013-0.726-0.77-0.284-1.661 0.764-1.541 0.606-2.617-0.564-3.839-1.151-1.202-1.664-1.118-1.102 0.18 0.202 0.466 0.322 1.221 0.268 1.676-0.077 0.645-0.273 0.848-0.882 0.916-0.436 0.049-0.956-0.112-1.173-0.362-0.449-0.518-1.263-0.587-1.724-0.146-0.221 0.212-0.56 0.198-1.12-0.046-0.676-0.295-0.894-0.27-1.384 0.154-0.32 0.277-0.9 0.461-1.289 0.408-0.624-0.085-0.705-0.249-0.69-1.4 0.009-0.718 0.126-1.533 0.26-1.812 0.413-0.864-0.597-0.598-1.462 0.385-0.91 1.034-1.070 2.938-0.332 3.946 0.407 0.556 0.083 0.645-0.145 1.877-1.099 5.937 0.040 8.144 3.019 9.304 1.949 0.759 4.694 0.73 6.434-0.068z"></path>
</svg>
