<!-- Generated by IcoMoon.io -->
<svg version="1.1" xmlns="http://www.w3.org/2000/svg" width="32" height="32" viewBox="0 0 32 32">
<title>menu</title>
<path d="M2.222 12.6h27.497c1.219 0 2.208 0.988 2.208 2.208v1.263c0 1.219-0.988 2.208-2.208 2.208h-27.497c-1.219 0-2.208-0.988-2.208-2.208v-1.263c0-1.219 0.988-2.208 2.208-2.208z"></path>
<path d="M2.222 21.787h27.497c1.219 0 2.208 0.988 2.208 2.208v1.263c0 1.219-0.988 2.208-2.208 2.208h-27.497c-1.219 0-2.208-0.988-2.208-2.208v-1.263c0-1.219 0.988-2.208 2.208-2.208z"></path>
<path d="M2.222 3.414h27.497c1.219 0 2.208 0.988 2.208 2.208v1.263c0 1.219-0.988 2.208-2.208 2.208h-27.497c-1.219 0-2.208-0.988-2.208-2.208v-1.263c0-1.219 0.988-2.208 2.208-2.208z"></path>
</svg>
