<!-- Generated by IcoMoon.io -->
<svg version="1.1" xmlns="http://www.w3.org/2000/svg" width="32" height="32" viewBox="0 0 32 32">
<title>search</title>
<path d="M11.421 0.625c-5.74 0-10.394 4.653-10.394 10.394v0c0 5.74 4.653 10.394 10.394 10.394v0c2.434-0 4.673-0.837 6.445-2.239l-0.022 0.017 0.716 0.73c-0.311 0.579-0.224 1.321 0.256 1.808l9.021 9.14c0.576 0.584 1.492 0.573 2.055-0.023l0.651-0.69c0.562-0.596 0.552-1.546-0.024-2.13l-9.021-9.14c-0.471-0.477-1.17-0.557-1.716-0.244l-0.645-0.658c1.661-1.835 2.678-4.281 2.678-6.964v0c0-5.74-4.653-10.394-10.394-10.394v0zM11.421 3.932c0 0 0 0 0 0 3.914 0 7.086 3.173 7.086 7.086v0c-0 3.914-3.173 7.086-7.086 7.086-0 0-0 0-0 0v0c-3.914-0-7.086-3.173-7.086-7.086v0c0-3.914 3.173-7.086 7.086-7.086v0z"></path>
</svg>
